HIERARCHY
ROOT Hips
{
	OFFSET -3.958830 18.904000 13.208200
	CHANNELS 6 Xposition Yposition Zposition Zrotation Yrotation Xrotation 
	JOINT LHipJoint
	{
		OFFSET 0.000000 0.000000 0.000000
		CHANNELS 3 Zrotation Yrotation Xrotation
		JOINT LeftUpLeg
		{
			OFFSET 1.800000 -1.400000 0.085000
			CHANNELS 3 Zrotation Yrotation Xrotation
			JOINT LeftLeg
			{
				OFFSET 2.215000 -6.000000 0.000000
				CHANNELS 3 Zrotation Yrotation Xrotation
				JOINT LeftFoot
				{
					OFFSET 2.500000 -6.900000 0.000000
					CHANNELS 3 Zrotation Yrotation Xrotation
					JOINT LeftToeBase
					{
						OFFSET 0.200000 -0.500000 1.950000
						CHANNELS 3 Zrotation Yrotation Xrotation
						End Site
						{
							OFFSET 0.000000 0.000000 0.000000
						}
					}
				}
			}
		}
	}
	JOINT RHipJoint
	{
		OFFSET 0.000000 0.000000 0.000000
		CHANNELS 3 Zrotation Yrotation Xrotation
		JOINT RightUpLeg
		{
			OFFSET -1.800000 -1.400000 0.085000
			CHANNELS 3 Zrotation Yrotation Xrotation
			JOINT RightLeg
			{
				OFFSET -2.215000 -6.000000 0.000000
				CHANNELS 3 Zrotation Yrotation Xrotation
				JOINT RightFoot
				{
					OFFSET -2.500000 -6.900000 0.000000
					CHANNELS 3 Zrotation Yrotation Xrotation
					JOINT RightToeBase
					{
						OFFSET -0.200000 -0.500000 1.950000
						CHANNELS 3 Zrotation Yrotation Xrotation
						End Site
						{
							OFFSET 0.000000 0.000000 0.000000
						}
					}
				}
			}
		}
	}
	JOINT LowerBack
	{
		OFFSET 0.000000 0.000000 0.000000
		CHANNELS 3 Zrotation Yrotation Xrotation
		JOINT Spine
		{
			OFFSET -0.087000 1.940000 -0.288900
			CHANNELS 3 Zrotation Yrotation Xrotation
			JOINT Spine1
			{
				OFFSET 0.000000 1.950000 0.060000
				CHANNELS 3 Zrotation Yrotation Xrotation
				JOINT Neck
				{
					OFFSET 0.000000 0.000000 0.000000
					CHANNELS 3 Zrotation Yrotation Xrotation
					JOINT Neck1
					{
						OFFSET 0.000000 1.600000 0.340000
						CHANNELS 3 Zrotation Yrotation Xrotation
						JOINT Head
						{
							OFFSET 0.000000 1.667000 -0.240000
							CHANNELS 3 Zrotation Yrotation Xrotation
							End Site
							{
								OFFSET 0.000000 0.000000 0.000000
							}
						}
					}
				}
				JOINT LeftShoulder
				{
					OFFSET 0.000000 0.000000 0.000000
					CHANNELS 3 Zrotation Yrotation Xrotation
					JOINT LeftArm
					{
						OFFSET 2.700000 1.550000 -0.730000
						CHANNELS 3 Zrotation Yrotation Xrotation
						JOINT LeftForeArm
						{
							OFFSET 5.450000 0.000000 0.000000
							CHANNELS 3 Zrotation Yrotation Xrotation
							JOINT LeftHand
							{
								OFFSET 3.450000 0.000000 0.000000
								CHANNELS 3 Zrotation Yrotation Xrotation
								JOINT LeftHandIndex1
								{
									OFFSET 0.750000 0.000000 0.000000
									CHANNELS 3 Zrotation Yrotation Xrotation
									End Site
									{
										OFFSET 0.000000 0.000000 0.000000
									}
								}
							}
						}
					}
				}
				JOINT RightShoulder
				{
					OFFSET 0.000000 0.000000 0.000000
					CHANNELS 3 Zrotation Yrotation Xrotation
					JOINT RightArm
					{
						OFFSET -2.700000 1.550000 -0.730000
						CHANNELS 3 Zrotation Yrotation Xrotation
						JOINT RightForeArm
						{
							OFFSET -5.450000 0.000000 0.000000
							CHANNELS 3 Zrotation Yrotation Xrotation
							JOINT RightHand
							{
								OFFSET -3.450000 0.000000 0.000000
								CHANNELS 3 Zrotation Yrotation Xrotation
								JOINT RightHandIndex1
								{
									OFFSET -0.750000 0.000000 0.000000
									CHANNELS 3 Zrotation Yrotation Xrotation
									End Site
									{
										OFFSET 0.000000 0.000000 0.000000
									}
								}
							}
						}
					}
				}
			}
		}
	}
}
MOTION
Frames: 4
Frame Time: 0.016667
0.193600 17.008290 -8.088300 -3.643974 -19.962069 2.308375 -14.933833 12.201619 4.572704 1.324137 -6.278132 -40.546043 -0.084489 7.164412 38.338715 -0.084465 6.122068 2.347035 0.202520 -0.054980 0.183500 18.521554 -10.688346 3.002431 0.188648 4.125220 -17.382083 9.566055 -5.957973 20.332323 -0.138585 -3.536198 3.245017 -0.022700 0.189770 0.127480 -4.186146 -0.548206 -8.256989 19.168499 0.489988 28.257807 -9.460154 7.967657 3.340316 4.327349 -5.920448 -12.052439 -11.855909 4.338554 33.730255 -4.867960 3.584040 -5.716630 -5.980538 -0.429411 2.708299 -19.321804 3.305369 -2.624448 17.949749 -11.185069 -1.539689 -3.987988 2.864692 0.356840 0.125630 -0.098810 0.074360 -3.266406 9.051976 8.141468 18.657763 0.895566 -8.384764 -43.956937 13.623113 -5.766998 2.370404 -1.781376 -0.156450 0.131710 0.053190 -0.191280 
0.193400 16.983440 -8.080750 -4.459553 -20.668311 1.259661 -14.936981 12.154900 4.639010 1.561516 -6.137483 -41.695583 1.522515 7.188334 41.398492 0.015322 6.608419 2.160362 0.220490 -0.031950 0.210680 18.531103 -10.726041 2.979950 1.225564 3.892347 -16.108476 8.687718 -5.910476 21.189778 -0.180311 -3.630507 3.203537 -0.021330 0.156820 0.147530 -4.198642 -0.401794 -8.304385 20.284599 0.707453 29.237453 -8.772797 8.778950 2.889050 4.224846 -5.324038 -11.857357 -10.550706 3.953944 34.626886 -5.734800 3.957300 -5.861980 -6.180773 -1.094181 2.854633 -19.854852 2.501120 -2.555324 17.695936 -10.763761 -1.480787 -3.990243 2.880424 0.351340 0.118480 -0.072110 0.070240 -3.008645 9.834959 7.667144 23.291628 2.978699 -10.535414 -55.161678 12.952460 -8.142707 2.378591 -1.903836 -0.129110 0.102520 0.035780 -0.192840 
0.178690 16.947560 -8.063370 -4.745208 -21.361420 0.212977 -14.933969 12.091260 4.691969 1.624134 -6.001932 -42.611279 2.869950 7.296466 44.080555 0.082770 7.080259 1.985871 0.214370 -0.039440 0.229610 18.543460 -10.779370 2.960603 1.756982 3.914591 -15.515095 7.879954 -6.034900 23.209672 -0.223128 -3.832314 3.129437 -0.026290 0.140010 0.151450 -4.225478 -0.196325 -8.346831 20.722423 1.267587 29.481261 -7.922836 9.422327 2.857555 3.905162 -4.538050 -11.585155 -8.973068 3.594834 35.789733 -6.851850 4.498320 -6.072640 -6.684630 -1.814278 2.940135 -19.566912 1.749963 -2.433523 17.300285 -10.274498 -1.413525 -4.008385 2.852774 0.361050 0.120880 -0.060780 0.053520 -1.999057 10.300882 7.267332 28.449567 4.787917 -12.444497 -67.140394 15.654278 -12.935218 2.301410 -1.933487 -0.131870 0.099690 0.041000 -0.208370 
0.165360 16.924590 -8.049940 -4.707049 -21.810531 -1.629487 -14.929855 12.130835 4.697928 1.447451 -5.892492 -42.657314 4.091047 7.328079 46.578937 0.133351 7.506149 1.824374 0.214590 -0.041680 0.238020 18.541937 -10.847001 2.915675 2.079551 3.680050 -14.171914 6.753287 -6.074605 25.037549 -0.273658 -4.032649 3.071434 -0.028420 0.118250 0.135360 -4.220276 -0.161409 -8.352773 20.945340 1.417056 30.635080 -7.058614 9.742808 2.992955 3.372737 -4.410082 -11.483450 -8.833672 3.682744 37.357286 -7.029260 4.404670 -7.064500 -7.565612 -2.654742 3.073673 -19.119054 1.283407 -2.359290 16.762233 -10.264726 -1.417901 -3.986927 2.807292 0.397520 0.100040 -0.049410 0.035030 -0.078050 11.244752 7.137787 32.543283 6.230365 -14.066327 -79.106874 18.813101 -19.674021 2.202323 -1.887435 -0.142920 0.117660 0.055460 -0.226120 
